<svg width="64" height="16" viewBox="0 0 64 16" fill="none" xmlns="http://www.w3.org/2000/svg">
<path d="M4.5 10.824V15H7.578V10.824L11.952 2.364H8.496L6.066 7.656L3.618 2.364H0.126L4.5 10.824ZM17.1202 7.278C18.1462 7.278 19.0102 7.908 19.0102 9.006H15.1582C15.3382 7.89 16.1122 7.278 17.1202 7.278ZM21.9262 11.67H18.6502C18.3982 12.21 17.9122 12.642 17.0482 12.642C16.0582 12.642 15.2482 12.03 15.1402 10.716H22.1062C22.1422 10.41 22.1602 10.104 22.1602 9.816C22.1602 6.756 20.0902 4.812 17.1562 4.812C14.1682 4.812 12.0802 6.792 12.0802 9.978C12.0802 13.164 14.2042 15.144 17.1562 15.144C19.6582 15.144 21.4402 13.632 21.9262 11.67ZM23.77 11.508C23.77 14.118 25.228 15 27.316 15H28.882V12.39H27.784C27.1 12.39 26.848 12.138 26.848 11.544V7.512H28.864V4.956H26.848V2.508H23.77V4.956H22.546V7.512H23.77V11.508ZM40.0145 4.956H36.9365V10.41C36.9365 11.778 36.1805 12.534 34.9925 12.534C33.8405 12.534 33.0665 11.778 33.0665 10.41V4.956H30.0065V10.824C30.0065 13.506 31.5725 15.108 33.8945 15.108C35.2445 15.108 36.3245 14.496 36.9365 13.632V15H40.0145V4.956ZM44.8034 6.378V1.68H41.7254V15H44.8034V13.596C45.3614 14.478 46.4234 15.144 47.8994 15.144C50.3654 15.144 52.3274 13.128 52.3274 9.96C52.3274 6.792 50.3834 4.812 47.8994 4.812C46.4594 4.812 45.3614 5.478 44.8034 6.378ZM49.1954 9.96C49.1954 11.562 48.1514 12.462 46.9814 12.462C45.8294 12.462 44.7854 11.58 44.7854 9.978C44.7854 8.376 45.8294 7.494 46.9814 7.494C48.1514 7.494 49.1954 8.358 49.1954 9.96ZM53.4422 15H56.5202V4.956H53.4422V15ZM54.9902 3.912C56.0702 3.912 56.8082 3.174 56.8082 2.256C56.8082 1.32 56.0702 0.581999 54.9902 0.581999C53.8922 0.581999 53.1542 1.32 53.1542 2.256C53.1542 3.174 53.8922 3.912 54.9902 3.912ZM58.7368 11.508C58.7368 14.118 60.1948 15 62.2828 15H63.8488V12.39H62.7508C62.0668 12.39 61.8148 12.138 61.8148 11.544V7.512H63.8308V4.956H61.8148V2.508H58.7368V4.956H57.5128V7.512H58.7368V11.508Z" fill="black"/>
</svg>
