<svg width="18" height="20" viewBox="0 0 18 20" fill="none" xmlns="http://www.w3.org/2000/svg">
<path fill-rule="evenodd" clip-rule="evenodd" d="M5.08 4.65V4.66C4.649 4.66 4.3 5.01 4.3 5.44C4.3 5.87 4.649 6.22 5.08 6.22H8.069C8.5 6.22 8.85 5.87 8.85 5.429C8.85 5 8.5 4.65 8.069 4.65H5.08ZM12.92 10.74H5.08C4.649 10.74 4.3 10.39 4.3 9.96C4.3 9.53 4.649 9.179 5.08 9.179H12.92C13.35 9.179 13.7 9.53 13.7 9.96C13.7 10.39 13.35 10.74 12.92 10.74ZM12.92 15.31H5.08C4.78 15.35 4.49 15.2 4.33 14.95C4.17 14.69 4.17 14.36 4.33 14.11C4.49 13.85 4.78 13.71 5.08 13.74H12.92C13.319 13.78 13.62 14.12 13.62 14.53C13.62 14.929 13.319 15.27 12.92 15.31ZM13.191 0H4.81C1.77 0 0 1.78 0 4.83V15.16C0 18.26 1.77 20 4.81 20H13.191C16.28 20 18 18.26 18 15.16V4.83C18 1.78 16.28 0 13.191 0Z" fill="#FFD600"/>
</svg>
