<svg width="21" height="18" viewBox="0 0 21 18" fill="none" xmlns="http://www.w3.org/2000/svg">
<path fill-rule="evenodd" clip-rule="evenodd" d="M16.6961 5.3818H20.9272C20.9272 1.98459 18.8916 0 15.4427 0H6.41163C2.96274 0 0.927185 1.98459 0.927185 5.33847V12.6615C0.927185 16.0154 2.96274 18 6.41163 18H15.4427C18.8916 18 20.9272 16.0154 20.9272 12.6615V12.3495H16.6961C14.7324 12.3495 13.1405 10.7975 13.1405 8.883C13.1405 6.96849 14.7324 5.41647 16.6961 5.41647V5.3818ZM16.6961 6.87241H20.1805C20.5929 6.87241 20.9272 7.19834 20.9272 7.60039V10.131C20.9224 10.5311 20.5909 10.8543 20.1805 10.8589H16.7761C15.782 10.872 14.9127 10.2084 14.6872 9.26432C14.5743 8.67829 14.7328 8.07357 15.1203 7.61222C15.5077 7.15087 16.0845 6.88007 16.6961 6.87241ZM16.8472 9.53298H17.1761C17.5983 9.53298 17.9405 9.1993 17.9405 8.78767C17.9405 8.37605 17.5983 8.04237 17.1761 8.04237H16.8472C16.6453 8.04005 16.4508 8.11664 16.3072 8.25504C16.1635 8.39344 16.0827 8.58213 16.0827 8.77901C16.0827 9.19205 16.4236 9.52823 16.8472 9.53298ZM5.66496 5.3818H11.3094C11.7316 5.3818 12.0739 5.04812 12.0739 4.63649C12.0739 4.22487 11.7316 3.89119 11.3094 3.89119H5.66496C5.24622 3.89116 4.90539 4.2196 4.90052 4.62783C4.90049 5.04087 5.24134 5.37705 5.66496 5.3818Z" fill="#FFD600"/>
</svg>
